<?xml version="1.0" encoding="UTF-8"?>
<svg width="62px" height="51px" viewBox="0 0 62 51" version="1.1" xmlns="http://www.w3.org/2000/svg" xmlns:xlink="http://www.w3.org/1999/xlink">
    <!-- Generator: Sketch 52.4 (67378) - http://www.bohemiancoding.com/sketch -->
    <title>Group 2</title>
    <desc>Created with Sketch.</desc>
    <defs>
        <polygon id="path-1" points="0 0.532722321 49.4769643 0.532722321 49.4769643 50.9999545 0 50.9999545"></polygon>
        <polygon id="path-3" points="0.577017544 0.487733036 49.1859649 0.487733036 49.1859649 50.9535991 0.577017544 50.9535991"></polygon>
    </defs>
    <g id="Page-1" stroke="none" stroke-width="1" fill="none" fill-rule="evenodd">
        <g id="Home" transform="translate(-284.000000, -29.000000)">
            <g id="navbar" transform="translate(284.000000, 29.000000)">
                <g id="nav-logo">
                    <g id="Group-2">
                        <g id="Group-3">
                            <mask id="mask-2" fill="white">
                                <use xlink:href="#path-1"></use>
                            </mask>
                            <g id="Clip-2"></g>
                            <path d="M6.48008929,0.896780357 C5.51223214,0.315744643 4.24973214,0.439601786 3.41848214,1.28747679 L0.739910714,4.01961964 C-0.0913392857,4.86749464 -0.212767857,6.15524464 0.356875,7.14245893 L6.48008929,0.896780357 Z M26.6327679,13.1267625 C25.6461607,12.1204232 24.0479464,12.1204232 23.0613393,13.1267625 L12.3470536,24.0553339 C11.3604464,25.0616732 11.3604464,26.6918518 12.3470536,27.6981911 C13.3336607,28.7045304 14.931875,28.7045304 15.9184821,27.6981911 L26.6327679,16.7696196 C27.619375,15.7632804 27.619375,14.1331018 26.6327679,13.1267625 Z M23.9541964,6.7517625 C22.9675893,5.74542321 21.369375,5.74542321 20.3827679,6.7517625 L6.09705357,21.3231911 C5.11044643,22.3295304 5.11044643,23.9597089 6.09705357,24.9660482 C7.08366071,25.9723875 8.681875,25.9723875 9.66848214,24.9660482 L23.9541964,10.3946196 C24.9408036,9.38828036 24.9408036,7.75810179 23.9541964,6.7517625 Z M17.7041964,7.66247679 C18.6908036,6.6561375 18.6908036,5.02595893 17.7041964,4.01961964 C16.7175893,3.01328036 15.119375,3.01328036 14.1327679,4.01961964 L3.41848214,14.9481911 C2.431875,15.9545304 2.431875,17.5847089 3.41848214,18.5910482 C4.40508929,19.5973875 6.00330357,19.5973875 6.98991071,18.5910482 L17.7041964,7.66247679 Z M11.4541964,4.93033393 C12.4408036,3.92399464 12.4408036,2.29381607 11.4541964,1.28747679 C10.4675893,0.2811375 8.869375,0.2811375 7.88276786,1.28747679 L0.739910714,8.57319107 C-0.246696429,9.57953036 -0.246696429,11.2097089 0.739910714,12.2160482 C1.72651786,13.2223875 3.32473214,13.2223875 4.31133929,12.2160482 L11.4541964,4.93033393 Z M49.2158036,49.2884946 L47.7997321,50.7328875 C47.450625,51.0889768 46.8854464,51.0889768 46.5372321,50.7328875 L24.400625,28.1535482 L22.1684821,30.4303339 C21.181875,31.4366732 19.5836607,31.4366732 18.5970536,30.4303339 C17.6104464,29.4239946 17.6104464,27.7938161 18.5970536,26.7874768 L25.7399107,19.5017625 C26.7265179,18.4954232 28.3247321,18.4954232 29.3113393,19.5017625 C30.2979464,20.5081018 30.2979464,22.1382804 29.3113393,23.1446196 L27.0791964,25.4214054 L49.2158036,48.0007446 C49.5640179,48.3559232 49.5640179,48.9333161 49.2158036,49.2884946 Z" id="Fill-1" fill="#000000" mask="url(#mask-2)"></path>
                        </g>
                        <g id="Group-6" transform="translate(12.000000, 0.000000)">
                            <mask id="mask-4" fill="white">
                                <use xlink:href="#path-3"></use>
                            </mask>
                            <g id="Clip-5"></g>
                            <path d="M48.8353509,7.09746964 C49.3958772,6.11025536 49.2765789,4.82250536 48.4590351,3.97463036 L45.8274561,1.2424875 C45.0116667,0.3946125 43.7713158,0.270755357 42.8204386,0.851791071 L48.8353509,7.09746964 Z M37.0555263,27.6532018 C38.0257018,26.6468625 38.0257018,25.0166839 37.0555263,24.0103446 L26.5292105,13.0817732 C25.5607895,12.0754339 23.990614,12.0754339 23.0204386,13.0817732 C22.0520175,14.0881125 22.0520175,15.7182911 23.0204386,16.7246304 L33.5467544,27.6532018 C34.5169298,28.6595411 36.0871053,28.6595411 37.0555263,27.6532018 Z M43.1958772,24.9210589 C44.1660526,23.9147196 44.1660526,22.2845411 43.1958772,21.2782018 L29.1607895,6.70677321 C28.1923684,5.70043393 26.622193,5.70043393 25.6520175,6.70677321 C24.6835965,7.7131125 24.6835965,9.34329107 25.6520175,10.3496304 L39.6871053,24.9210589 C40.6572807,25.9273982 42.2274561,25.9273982 43.1958772,24.9210589 Z M42.3186842,18.5460589 C43.2888596,19.5523982 44.8590351,19.5523982 45.8274561,18.5460589 C46.7976316,17.5397196 46.7976316,15.9095411 45.8274561,14.9032018 L35.3011404,3.97463036 C34.3327193,2.96829107 32.7625439,2.96829107 31.7923684,3.97463036 C30.8239474,4.98096964 30.8239474,6.61114821 31.7923684,7.6174875 L42.3186842,18.5460589 Z M44.9502632,12.1710589 C45.9204386,13.1773982 47.490614,13.1773982 48.4590351,12.1710589 C49.4292105,11.1647196 49.4292105,9.53454107 48.4590351,8.52820179 L41.4414912,1.2424875 C40.4730702,0.236148214 38.9028947,0.236148214 37.9327193,1.2424875 C36.9642982,2.24882679 36.9642982,3.87900536 37.9327193,4.88534464 L44.9502632,12.1710589 Z M2.22482456,50.6878982 L0.833596491,49.2435054 C0.491491228,48.8874161 0.491491228,48.3100232 0.833596491,47.9557554 L22.5818421,25.3764161 L20.3888596,23.0996304 C19.4195614,22.0932911 19.4195614,20.4631125 20.3888596,19.4567732 C21.3590351,18.4504339 22.9292105,18.4504339 23.8976316,19.4567732 L30.9151754,26.7424875 C31.8853509,27.7488268 31.8853509,29.3790054 30.9151754,30.3853446 C29.9467544,31.3916839 28.3765789,31.3916839 27.4064035,30.3853446 L25.2134211,28.1085589 L3.46517544,50.6878982 C3.12394737,51.0421661 2.56692982,51.0421661 2.22482456,50.6878982 Z" id="Fill-4" fill="#000000" mask="url(#mask-4)"></path>
                        </g>
                    </g>
                </g>
            </g>
        </g>
    </g>
</svg>